# xmcd
#
# Track frame offsets:
#	150
#	10540
#	23195
#	38515
#	53997
#	67955
#	73090
#	88215
#	102215
#	116597
#	132957
#	144402
#	158212
#	171772
#	185425
#	197052
#	211755
#	225177
#
# Disc length: 3152 seconds
#
# Revision: 0
# Processed by: cddbd v1.5.2PL0 Copyright (c) Steve Scherf et al.
# Submitted via: EasyCDDAExtractor 16.0.6.1
#
DISCID=e90c4e12
DTITLE=Συλλογικός δίσκος - Τραγούδια και σκοποί διάφορες περιοχές Ελλάδας 3
DYEAR=1996
DGENRE=Παραδοσιακή
TTITLE0=Σαμίου Δόμνα-Σπανού Θάλεια - Ήλθεν ο καλός μου [συρτός Μυκόνου]
TTITLE1=Παπαθανασίου Λάμπρος - Βιολέτα μ' ανθισμένη [καλαματιανό στεριανό]
TTITLE2=Καρζή Αμαλία - Διώξε με μάνα [κλέφτικο Πελοποννήσου]
TTITLE3=Γκινής Παντελής-ομάδα ανδρών - Αγάντα γιαλέσα [σφουγγαράδικο τσιμάρισμ
TTITLE3=α Καλύμνου, ιδίου]
TTITLE4=Μπαϊρακτάρη Κουταλακίδου Ελένη-Μπαϊρακτάρης Χρ. - Πάμε κόρ'σα καστανά 
TTITLE4=[χορός χαιργιανίτσα Πόντου]
TTITLE5=Άνευ ερμηνευτού - Κανονάκι σόλο [ορχηστρικό]
TTITLE6=Αηδονίδης Χρόνης - Ελένη ν' αμάν [συρτός Θράκης]
TTITLE7=Σκαλίδης Γιάννης-Σκαλίδη Δέσποινα - Φεύγω και παραγγέλω σου [πεντοζάλη
TTITLE7=ς Κρήτης]
TTITLE8=Άνευ ερμηνευτού - Πατινάδα [πατινάδα Ύδρας, ορχηστρικό]
TTITLE9=Μπραχοπούλου Ελπίδα - Ξενητεμένο μου πουλί [συρτό Ηπείρου]
TTITLE10=Παπαθανασίου Λάμπρος - Παλαβό [συρτό γρήγορο σέντζα Ρούμελης]
TTITLE11=Παπαθανασίου Λάμπρος - Εγώ 'βρα κι αρρεβώνιασα [τσάμικο Ρούμελης]
TTITLE12=Καρζή Αμαλία - Η φτέρη [συρτό Πελοποννήσου]
TTITLE13=Χορωδία - Πότε θα κάνει ξαστεριά [καθιστό κρητικό]
TTITLE14=Μανιάτη Άννα - Κάτω στο γιαλό [δετός χορός στα τρία]
TTITLE15=Παπαθανασίου Λάμπρος - Μπαίνω μέσ' στ' αμπέλι [αργό καλαματιανό στερι
TTITLE15=ανό]
TTITLE16=Χριστοδουλάκη-Παπαστεφάνου Αμαλία - Κόρη που 'φαίνεις τ' αργαλιό [συρ
TTITLE16=τό Δωδεκανήσου]
TTITLE17=Άνευ ερμηνευτού - Ζερβόδεξος χορός [δωδεκανησιακό, ορχηστρικό]
EXTD=
EXTT0=
EXTT1=
EXTT2=
EXTT3=
EXTT4=
EXTT5=
EXTT6=
EXTT7=
EXTT8=
EXTT9=
EXTT10=
EXTT11=
EXTT12=
EXTT13=
EXTT14=
EXTT15=
EXTT16=
EXTT17=
PLAYORDER=
